<svg width="30" height="30" viewBox="0 0 30 30" fill="none" xmlns="http://www.w3.org/2000/svg">
<path d="M15.0008 9.33282L15.0092 8.83288L15.0008 8.83275L14.9925 8.83288L15.0008 9.33282ZM15.0008 9.33282C15.0092 8.83288 15.0092 8.83289 15.0093 8.83289L15.0098 8.83289L15.0114 8.83292L15.0175 8.83303L15.0415 8.83346L15.1343 8.83524C15.2155 8.83686 15.3343 8.83937 15.4853 8.84295C15.7874 8.85011 16.2186 8.86154 16.736 8.87866C17.7703 8.91287 19.1511 8.96986 20.5334 9.06097C21.9121 9.15184 23.3067 9.27753 24.3627 9.45112C24.8866 9.53725 25.3527 9.63911 25.6975 9.76373C25.8671 9.825 26.0392 9.90282 26.178 10.0077C26.3091 10.1067 26.5002 10.3005 26.5002 10.5994C26.5002 10.8164 26.4064 10.9914 26.308 11.1152C26.2102 11.2383 26.0854 11.3402 25.9604 11.4248C25.7101 11.5941 25.378 11.7478 25.0162 11.8875C24.2863 12.1691 23.3293 12.433 22.3923 12.6584C21.451 12.8848 20.5117 13.0765 19.8089 13.2114C19.552 13.2607 19.3264 13.3026 19.1432 13.3358C19.1486 13.3621 19.1541 13.3893 19.1597 13.4175C19.2349 13.7902 19.3411 14.323 19.4652 14.9634C19.7133 16.2439 20.0334 17.9568 20.3209 19.6835C20.6078 21.4073 20.8641 23.156 20.9822 24.5039C21.041 25.1747 21.0675 25.7662 21.0419 26.2122C21.0293 26.4322 21.0027 26.6444 20.9486 26.8218C20.905 26.9647 20.795 27.2508 20.4966 27.3652C20.2451 27.4621 20.0113 27.3887 19.8626 27.314C19.7097 27.2371 19.5687 27.1214 19.4443 27.0009C19.1924 26.757 18.9181 26.404 18.6391 25.9998C18.0766 25.1849 17.4341 24.0721 16.832 22.9621C16.2281 21.8487 15.6575 20.7241 15.2383 19.8789C15.1528 19.7066 15.0737 19.5459 15.0017 19.3991C14.9301 19.5457 14.8513 19.7062 14.7663 19.8782C14.3487 20.7234 13.7801 21.848 13.1783 22.9615C12.5784 24.0715 11.9379 25.1843 11.377 25.9993C11.0988 26.4034 10.8251 26.7565 10.5737 27.0005C10.4495 27.1211 10.3086 27.2369 10.1558 27.3139C10.0071 27.3887 9.77332 27.4621 9.52188 27.3653C9.22336 27.2509 9.11338 26.9647 9.06974 26.8218C9.01558 26.6444 8.98903 26.4322 8.97641 26.2122C8.95083 25.7662 8.97733 25.1747 9.03612 24.5039C9.15426 23.156 9.41051 21.4073 9.69747 19.6835C9.9849 17.9568 10.305 16.2439 10.5532 14.9634C10.6772 14.323 10.7834 13.7902 10.8586 13.4175C10.8643 13.3894 10.8697 13.3622 10.875 13.336C10.6914 13.3027 10.4649 13.2609 10.207 13.2115C9.50273 13.0765 8.56131 12.8848 7.6179 12.6584C6.67887 12.4331 5.71983 12.1692 4.98838 11.8876C4.62582 11.748 4.29311 11.5943 4.04246 11.4251C3.91723 11.3405 3.79218 11.2387 3.69418 11.1156C3.59565 10.9919 3.50144 10.8167 3.50144 10.5994C3.50144 10.3005 3.69259 10.1067 3.82362 10.0077C3.96246 9.90282 4.13459 9.825 4.30415 9.76373C4.64902 9.63911 5.11508 9.53725 5.63899 9.45112C6.69494 9.27753 8.08955 9.15184 9.46826 9.06097C10.8506 8.96986 12.2314 8.91287 13.2656 8.87866C13.783 8.86154 14.2143 8.85011 14.5164 8.84295C14.6674 8.83937 14.7862 8.83686 14.8673 8.83524L14.9602 8.83346L14.9841 8.83303L14.9903 8.83292L14.9919 8.83289L14.9923 8.83289C14.9924 8.83289 14.9925 8.83288 15.0008 9.33282ZM28.3959 9.45035C29.1247 11.2095 29.4999 13.095 29.5 14.9992C29.5002 18.8448 27.9727 22.533 25.2536 25.2525C22.5345 27.9719 18.8464 29.4998 15.0008 29.5C11.1552 29.5002 7.46695 27.9727 4.74752 25.2536C2.02809 22.5345 0.500214 18.8464 0.5 15.0008C0.499894 13.0966 0.874843 11.2111 1.60344 9.45183C2.33203 7.69257 3.40001 6.09405 4.74638 4.74752C6.09276 3.401 7.69117 2.33285 9.45035 1.60405C11.2095 0.875264 13.095 0.500106 14.9992 0.5C16.9034 0.499894 18.7889 0.874843 20.5482 1.60344C22.3074 2.33203 23.906 3.40001 25.2525 4.74638C26.599 6.09276 27.6672 7.69117 28.3959 9.45035ZM18.0007 5.16638C18.0007 3.50698 16.6602 2.16652 15.0008 2.16652C13.3603 2.16652 12.001 3.50482 12.001 5.16638C12.001 6.82362 13.3559 8.18291 15.0008 8.18291C16.6645 8.18291 18.0007 6.82144 18.0007 5.16638Z" fill="#D8CBAB" stroke="#AEA389"/>
</svg>
