<svg width="15" height="15" viewBox="0 0 15 15" fill="none" xmlns="http://www.w3.org/2000/svg">
<path d="M9.68199 0.199604C9.5971 0.127119 9.49851 0.0724262 9.39208 0.0387733C9.28565 0.00512044 9.17354 -0.00680686 9.06242 0.00369945C8.95129 0.0142058 8.8434 0.0469314 8.74516 0.099934C8.64692 0.152937 8.56033 0.225136 8.49053 0.312246C8.42073 0.399356 8.36914 0.499601 8.33883 0.607032C8.30852 0.714462 8.3001 0.826888 8.31407 0.937635C8.32804 1.04838 8.36412 1.15519 8.42016 1.25173C8.47621 1.34827 8.55108 1.43256 8.64032 1.4996L10.7237 3.16627C10.8715 3.28461 11.0552 3.34908 11.2445 3.34908C11.4338 3.34908 11.6175 3.28461 11.7653 3.16627L13.8487 1.4996C14.0133 1.35901 14.1168 1.15986 14.1371 0.94431C14.1575 0.728763 14.0932 0.513746 13.9578 0.344788C13.8224 0.175829 13.6266 0.0661935 13.4118 0.039095C13.197 0.0119964 12.9801 0.0695625 12.807 0.199604L11.2445 1.4496L9.68199 0.199604ZM5.82782 1.68294C5.99102 1.68279 6.15067 1.73057 6.28697 1.82035C6.42326 1.91012 6.53019 2.03794 6.59449 2.18794L11.5937 13.8546C11.6771 14.0571 11.6774 14.2842 11.5947 14.4869C11.512 14.6896 11.3528 14.8517 11.1515 14.9379C10.9503 15.0242 10.7232 15.0278 10.5193 14.948C10.3154 14.8681 10.1511 14.7113 10.062 14.5113L8.49282 10.8496H3.16282L1.59449 14.5113C1.50535 14.7113 1.34109 14.8681 1.1372 14.948C0.933323 15.0278 0.706209 15.0242 0.504967 14.9379C0.303725 14.8517 0.144524 14.6896 0.0617859 14.4869C-0.0209524 14.2842 -0.0205804 14.0571 0.0628215 13.8546L5.06282 2.18794C5.12701 2.0382 5.23368 1.91056 5.36965 1.8208C5.50561 1.73105 5.6649 1.68312 5.82782 1.68294ZM5.82782 4.6321L3.87782 9.1821H7.77782L5.82782 4.6321Z" fill="#082C37"/>
</svg>
