<svg width="15" height="15" viewBox="0 0 15 15" fill="none" xmlns="http://www.w3.org/2000/svg">
<path d="M9.68282 3.14948C9.50972 3.27952 9.2928 3.33709 9.07799 3.30999C8.86319 3.28289 8.66736 3.17325 8.53198 3.0043C8.39659 2.83534 8.33228 2.62032 8.35266 2.40477C8.37304 2.18923 8.47651 1.99007 8.64115 1.84948L10.7245 0.182813C10.8723 0.0644766 11.056 0 11.2453 0C11.4347 0 11.6184 0.0644766 11.7662 0.182813L13.8495 1.84948C14.0141 1.99007 14.1176 2.18923 14.138 2.40477C14.1584 2.62032 14.0941 2.83534 13.9587 3.0043C13.8233 3.17325 13.6275 3.28289 13.4127 3.30999C13.1978 3.33709 12.9809 3.27952 12.8078 3.14948L11.2453 1.89948L9.68282 3.14948ZM6.59449 2.17115C6.53021 2.02132 6.42339 1.89363 6.28727 1.80391C6.15114 1.71418 5.99169 1.66636 5.82865 1.66636C5.66562 1.66636 5.50616 1.71418 5.37004 1.80391C5.23391 1.89363 5.1271 2.02132 5.06282 2.17115L0.0628215 13.8378C-0.0205804 14.0403 -0.0209524 14.2674 0.0617859 14.4701C0.144524 14.6729 0.303725 14.8349 0.504967 14.9211C0.706209 15.0074 0.933323 15.011 1.1372 14.9312C1.34109 14.8513 1.50535 14.6945 1.59449 14.4945L3.16449 10.8328H8.49365L10.0628 14.4945C10.152 14.6945 10.3162 14.8513 10.5201 14.9312C10.724 15.011 10.9511 15.0074 11.1523 14.9211C11.3536 14.8349 11.5128 14.6729 11.5955 14.4701C11.6783 14.2674 11.6779 14.0403 11.5945 13.8378L6.59449 2.17115ZM5.82865 4.61615L7.77865 9.16615H3.87865L5.82865 4.61615Z" fill="#082C37"/>
</svg>
