<svg width="22" height="22" viewBox="0 0 22 22" fill="none" xmlns="http://www.w3.org/2000/svg">
<path d="M8 11H21M21 11L17.5 8M21 11L17.5 14" stroke="#D11001" stroke-width="1.5" stroke-linecap="round" stroke-linejoin="round"/>
<path d="M13.998 6C13.986 3.825 13.889 2.647 13.121 1.879C12.242 1 10.828 1 7.99999 1H6.99999C4.17099 1 2.75699 1 1.87799 1.879C0.999986 2.757 0.999986 4.172 0.999986 7V15C0.999986 17.828 0.999986 19.243 1.87799 20.121C2.64699 20.89 3.82499 20.986 5.99999 20.998M13.998 16C13.986 18.175 13.889 19.353 13.121 20.121C12.48 20.763 11.553 20.936 9.99999 20.983" stroke="#D11001" stroke-width="1.5" stroke-linecap="round"/>
</svg>
