<svg viewBox="0 0 314 46" fill="none" xmlns="http://www.w3.org/2000/svg">
<path d="M30.8443 22.7939C30.8443 35.4748 27.265 45.9683 18.7452 45.9683C10.2254 45.9683 0 35.4907 0 22.7939C0 10.0972 10.2254 0 18.7452 0C27.265 0 30.8443 10.1051 30.8443 22.7939Z" fill="#E94940"/>
<path d="M33.5669 8.24261H19.2498V37.7257H33.5669V8.24261Z" fill="#E94940"/>
<path opacity="0.5" d="M33.6308 26.3525V37.7574H28.6182C26.7044 42.7981 23.5015 45.9683 18.7851 45.9683C10.7778 45.9683 1.16898 36.632 0.144043 24.918C3.20285 29.5782 7.82309 34.4208 14.0048 35.1103C25.9197 36.4576 27.8414 27.8822 27.8414 27.8822L33.6308 26.3525Z" fill="#D73636"/>
<path d="M283.156 22.7939C283.156 35.4748 286.735 45.9683 295.255 45.9683C303.775 45.9683 314 35.4907 314 22.7939C314 10.0972 303.775 0 295.255 0C286.735 0 283.156 10.1051 283.156 22.7939Z" fill="#E94940"/>
<path d="M280.433 37.7257H294.75V8.2426H280.433V37.7257Z" fill="#E94940"/>
<path opacity="0.5" d="M280.393 26.3525V37.7574H285.39C287.303 42.7981 290.506 45.9683 295.215 45.9683C303.262 45.9683 312.831 36.632 313.864 24.918C310.813 29.5465 306.177 34.4287 300.003 35.0786C288.088 36.4101 286.158 27.8505 286.158 27.8505L280.393 26.3525Z" fill="#D73636"/>
<path d="M280.393 0.0158691H33.5908V45.9842H280.393V0.0158691Z" fill="url(#paint0_radial_37_110)"/>
<defs>
<radialGradient id="paint0_radial_37_110" cx="0" cy="0" r="1" gradientUnits="userSpaceOnUse" gradientTransform="translate(156.345 23.2102) rotate(90) scale(22.7017 371.744)">
<stop offset="0.16" stop-color="#FFF3D6"/>
<stop offset="0.58" stop-color="#FCEDD1"/>
<stop offset="1" stop-color="#F7E1C7"/>
</radialGradient>
</defs>
</svg>
