<svg width="265" height="7" viewBox="0 0 265 7" fill="#082C37" xmlns="http://www.w3.org/2000/svg">
<path d="M5.56 5.42C5.4 5.42 5.26667 5.37333 5.16 5.28C4.94667 5.10667 4.88667 4.88667 4.98 4.62C4.98 4.60667 5.02667 4.44667 5.12 4.14C5.22667 3.83333 5.34667 3.48667 5.48 3.1C5.54667 2.87333 5.60667 2.68 5.66 2.52C5.71333 2.34667 5.76 2.19333 5.8 2.06C5.44 2.19333 5 2.36 4.48 2.56C3.96 2.74667 3.41333 2.94667 2.84 3.16C2.28 3.37333 1.73333 3.58 1.2 3.78C1.05333 3.83333 0.906667 3.82667 0.76 3.76C0.6 3.68 0.486667 3.56 0.42 3.4C0.366667 3.25333 0.38 3.10667 0.46 2.96C0.526667 2.8 0.64 2.68667 0.8 2.62C1.4 2.40667 2.02 2.18667 2.66 1.96C3.3 1.72 3.89333 1.5 4.44 1.3C4.98667 1.08667 5.43333 0.913333 5.78 0.78C6.12667 0.646666 6.3 0.579999 6.3 0.579999C6.36667 0.566666 6.43333 0.56 6.5 0.56C6.56667 0.546667 6.62667 0.553333 6.68 0.579999C6.86667 0.606666 7 0.713333 7.08 0.899999C7.14667 1.00667 7.17333 1.14667 7.16 1.32C7.16 1.48 7.12667 1.71333 7.06 2.02C7.02 2.19333 6.96667 2.38667 6.9 2.6C6.84667 2.8 6.77333 3.03333 6.68 3.3C6.66667 3.35333 6.65333 3.4 6.64 3.44C6.62667 3.48 6.61333 3.52667 6.6 3.58C7.13333 3.28667 7.78667 2.98 8.56 2.66C8.70667 2.59333 8.85333 2.59333 9 2.66C9.16 2.71333 9.26667 2.81333 9.32 2.96C9.4 3.10667 9.40667 3.26 9.34 3.42C9.27333 3.58 9.16667 3.69333 9.02 3.76C8.42 4.02667 7.88 4.28 7.4 4.52C6.93333 4.76 6.56 4.95333 6.28 5.1C6 5.24667 5.86 5.32 5.86 5.32C5.78 5.38667 5.68 5.42 5.56 5.42ZM11.2934 6.6C11.2268 6.6 11.1601 6.59333 11.0934 6.58C11.0268 6.58 10.9534 6.57333 10.8734 6.56C10.7134 6.50667 10.5801 6.39333 10.4734 6.22C10.4201 6.11333 10.3934 5.96667 10.3934 5.78C10.3934 5.59333 10.4534 5.28667 10.5734 4.86C10.6934 4.43333 10.8868 3.8 11.1534 2.96C10.8601 3.06667 10.5201 3.19333 10.1334 3.34C9.7601 3.48667 9.37344 3.63333 8.97344 3.78C8.82677 3.83333 8.6801 3.82667 8.53344 3.76C8.37344 3.68 8.2601 3.56 8.19344 3.4C8.1401 3.25333 8.15344 3.10667 8.23344 2.96C8.3001 2.8 8.41344 2.68667 8.57344 2.62C9.14677 2.40667 9.6801 2.20667 10.1734 2.02C10.6801 1.83333 11.0934 1.68 11.4134 1.56C11.7334 1.44 11.8934 1.38 11.8934 1.38C12.0268 1.32667 12.1534 1.32 12.2734 1.36C12.4468 1.4 12.5734 1.5 12.6534 1.66C12.7201 1.78 12.7401 1.88667 12.7134 1.98C12.7001 2.07333 12.6801 2.17333 12.6534 2.28C12.6268 2.33333 12.6068 2.39333 12.5934 2.46C12.5801 2.51333 12.5601 2.58 12.5334 2.66C12.4401 2.88667 12.3401 3.16667 12.2334 3.5C12.1401 3.82 12.0401 4.14667 11.9334 4.48C11.8668 4.66667 11.8134 4.82667 11.7734 4.96C11.7334 5.09333 11.7001 5.21333 11.6734 5.32C11.9268 5.26667 12.2934 5.11333 12.7734 4.86C13.1868 4.63333 13.6268 4.37333 14.0934 4.08C14.5734 3.77333 15.0601 3.45333 15.5534 3.12C15.6601 3.05333 15.7668 2.98667 15.8734 2.92C15.9934 2.85333 16.1001 2.78 16.1934 2.7C16.3401 2.60667 16.4934 2.58 16.6534 2.62C16.8268 2.64667 16.9601 2.73333 17.0534 2.88C17.1468 3.01333 17.1734 3.16 17.1334 3.32C17.1068 3.48 17.0201 3.60667 16.8734 3.7C16.7668 3.78 16.6534 3.86 16.5334 3.94C16.4268 4.00667 16.3134 4.08 16.1934 4.16C15.6868 4.49333 15.1934 4.81333 14.7134 5.12C14.2334 5.42667 13.7801 5.69333 13.3534 5.92C12.4868 6.37333 11.8001 6.6 11.2934 6.6ZM23.5864 5.22C23.4931 5.22 23.4064 5.20667 23.3264 5.18C23.0731 5.12667 22.8931 4.97333 22.7864 4.72C22.7064 4.49333 22.7264 4.24 22.8464 3.96C22.9797 3.68 23.1531 3.36667 23.3664 3.02C23.4464 2.9 23.5197 2.78 23.5864 2.66C23.6664 2.52667 23.7331 2.40667 23.7864 2.3C23.8131 2.26 23.8331 2.22667 23.8464 2.2C23.8597 2.16 23.8731 2.12667 23.8864 2.1C23.4864 2.03333 23.0197 2.02 22.4864 2.06C21.9664 2.08667 21.3797 2.18667 20.7264 2.36C20.1531 2.50667 19.5331 2.7 18.8664 2.94C18.2131 3.16667 17.5197 3.44 16.7864 3.76C16.6397 3.81333 16.4931 3.81333 16.3464 3.76C16.1997 3.70667 16.0931 3.60667 16.0264 3.46C15.9464 3.31333 15.9397 3.16 16.0064 3C16.0731 2.82667 16.1797 2.71333 16.3264 2.66C17.0731 2.32667 17.7864 2.04 18.4664 1.8C19.1597 1.54667 19.8131 1.34667 20.4264 1.2C22.0664 0.786666 23.4064 0.72 24.4464 1C24.7531 1.08 24.9664 1.26667 25.0864 1.56C25.2064 1.85333 25.1797 2.18 25.0064 2.54C24.8331 2.9 24.6264 3.27333 24.3864 3.66C24.3731 3.68667 24.3531 3.72 24.3264 3.76C24.2997 3.8 24.2731 3.84667 24.2464 3.9C24.5531 3.83333 25.0064 3.7 25.6064 3.5C26.2064 3.3 27.0331 3.00667 28.0864 2.62C28.2331 2.56667 28.3797 2.58 28.5264 2.66C28.6864 2.72667 28.7931 2.84 28.8464 3C28.9131 3.14667 28.9131 3.3 28.8464 3.46C28.7797 3.60667 28.6597 3.71333 28.4864 3.78C27.8731 3.99333 27.3131 4.18667 26.8064 4.36C26.2997 4.53333 25.8464 4.68 25.4464 4.8C24.9131 4.96 24.5064 5.07333 24.2264 5.14C23.9464 5.19333 23.7331 5.22 23.5864 5.22ZM35.3638 5.22C35.2704 5.22 35.1838 5.20667 35.1038 5.18C34.8504 5.12667 34.6704 4.97333 34.5638 4.72C34.4838 4.49333 34.5038 4.24 34.6238 3.96C34.7571 3.68 34.9304 3.36667 35.1438 3.02C35.2238 2.9 35.2971 2.78 35.3638 2.66C35.4438 2.52667 35.5104 2.40667 35.5638 2.3C35.5904 2.26 35.6104 2.22667 35.6238 2.2C35.6371 2.16 35.6504 2.12667 35.6638 2.1C35.2638 2.03333 34.7971 2.02 34.2638 2.06C33.7438 2.08667 33.1571 2.18667 32.5038 2.36C31.9304 2.50667 31.3104 2.7 30.6438 2.94C29.9904 3.16667 29.2971 3.44 28.5638 3.76C28.4171 3.81333 28.2704 3.81333 28.1237 3.76C27.9771 3.70667 27.8704 3.60667 27.8037 3.46C27.7237 3.31333 27.7171 3.16 27.7837 3C27.8504 2.82667 27.9571 2.71333 28.1037 2.66C28.8504 2.32667 29.5638 2.04 30.2438 1.8C30.9371 1.54667 31.5904 1.34667 32.2038 1.2C33.8438 0.786666 35.1838 0.72 36.2238 1C36.5304 1.08 36.7438 1.26667 36.8638 1.56C36.9838 1.85333 36.9571 2.18 36.7838 2.54C36.6104 2.9 36.4038 3.27333 36.1638 3.66C36.1504 3.68667 36.1304 3.72 36.1038 3.76C36.0771 3.8 36.0504 3.84667 36.0238 3.9C36.3304 3.83333 36.7838 3.7 37.3838 3.5C37.9838 3.3 38.8104 3.00667 39.8638 2.62C40.0104 2.56667 40.1571 2.58 40.3038 2.66C40.4638 2.72667 40.5704 2.84 40.6238 3C40.6904 3.14667 40.6904 3.3 40.6238 3.46C40.5571 3.60667 40.4371 3.71333 40.2638 3.78C39.6504 3.99333 39.0904 4.18667 38.5838 4.36C38.0771 4.53333 37.6238 4.68 37.2238 4.8C36.6904 4.96 36.2838 5.07333 36.0038 5.14C35.7238 5.19333 35.5104 5.22 35.3638 5.22ZM41.7211 6.56C41.6278 6.56 41.5344 6.54667 41.4411 6.52C41.3478 6.50667 41.2544 6.49333 41.1611 6.48C40.9211 6.41333 40.7544 6.27333 40.6611 6.06C40.5411 5.79333 40.5411 5.47333 40.6611 5.1C40.7944 4.71333 41.0078 4.22 41.3011 3.62C41.3544 3.51333 41.4078 3.39333 41.4611 3.26C41.5278 3.12667 41.5878 3 41.6411 2.88C41.4678 2.94667 41.2811 3.06 41.0811 3.22C40.8944 3.36667 40.7011 3.52 40.5011 3.68C40.3678 3.77333 40.2211 3.81333 40.0611 3.8C39.8878 3.77333 39.7478 3.7 39.6411 3.58C39.5478 3.44667 39.5144 3.3 39.5411 3.14C39.5544 2.98 39.6211 2.84 39.7411 2.72C39.9278 2.58667 40.1211 2.44 40.3211 2.28C40.5344 2.12 40.7478 1.98667 40.9611 1.88C41.5078 1.6 42.0078 1.52667 42.4611 1.66C42.6744 1.7 42.8344 1.83333 42.9411 2.06C43.0478 2.27333 43.0411 2.54 42.9211 2.86C42.8144 3.18 42.6278 3.61333 42.3611 4.16C42.2944 4.32 42.2211 4.48 42.1411 4.64C42.0744 4.8 42.0078 4.95333 41.9411 5.1C41.9278 5.15333 41.9078 5.2 41.8811 5.24C41.8678 5.28 41.8544 5.32 41.8411 5.36C42.1211 5.32 42.5278 5.18 43.0611 4.94C43.6078 4.68667 44.3411 4.19333 45.2611 3.46C45.7544 3.07333 46.2011 2.7 46.6011 2.34C47.0011 1.96667 47.3211 1.66 47.5611 1.42C47.8011 1.18 47.9211 1.06 47.9211 1.06C48.0811 0.873333 48.2744 0.813333 48.5011 0.88C48.6078 0.893333 48.6944 0.94 48.7611 1.02C48.8278 1.08667 48.8811 1.15333 48.9211 1.22C49.0144 1.40667 49.0211 1.62667 48.9411 1.88C48.8744 2.12 48.7278 2.51333 48.5011 3.06C48.4211 3.23333 48.3411 3.40667 48.2611 3.58C48.1944 3.75333 48.1278 3.91333 48.0611 4.06C48.0478 4.11333 48.0344 4.16 48.0211 4.2C48.0211 4.22667 48.0144 4.25333 48.0011 4.28C48.2544 4.24 48.5211 4.13333 48.8011 3.96C49.0944 3.77333 49.3744 3.56667 49.6411 3.34C49.9211 3.11333 50.1544 2.92 50.3411 2.76C50.4744 2.64 50.6211 2.58667 50.7811 2.6C50.9411 2.61333 51.0811 2.68 51.2011 2.8C51.3078 2.93333 51.3544 3.08 51.3411 3.24C51.3411 3.4 51.2744 3.54 51.1411 3.66C50.7278 4.02 50.3011 4.36 49.8611 4.68C49.4344 5 49.0011 5.24 48.5611 5.4C48.1344 5.54667 47.7011 5.56667 47.2611 5.46C47.0478 5.36667 46.8944 5.23333 46.8011 5.06C46.7211 4.87333 46.6944 4.66667 46.7211 4.44C46.7611 4.21333 46.8411 3.93333 46.9611 3.6C46.8144 3.73333 46.6611 3.86 46.5011 3.98C46.3544 4.1 46.1944 4.23333 46.0211 4.38C44.1811 5.83333 42.7478 6.56 41.7211 6.56ZM62.0922 6.56C61.9989 6.56 61.9055 6.54667 61.8122 6.52C61.7189 6.50667 61.6255 6.49333 61.5322 6.48C61.2922 6.41333 61.1255 6.27333 61.0322 6.06C60.9122 5.79333 60.9122 5.47333 61.0322 5.1C61.1655 4.71333 61.3789 4.22 61.6722 3.62C61.7255 3.51333 61.7789 3.39333 61.8322 3.26C61.8989 3.12667 61.9589 3 62.0122 2.88C61.8389 2.94667 61.6522 3.06 61.4522 3.22C61.2655 3.36667 61.0722 3.52 60.8722 3.68C60.7389 3.77333 60.5922 3.81333 60.4322 3.8C60.2589 3.77333 60.1189 3.7 60.0122 3.58C59.9189 3.44667 59.8855 3.3 59.9122 3.14C59.9255 2.98 59.9922 2.84 60.1122 2.72C60.2989 2.58667 60.4922 2.44 60.6922 2.28C60.9055 2.12 61.1189 1.98667 61.3322 1.88C61.8789 1.6 62.3789 1.52667 62.8322 1.66C63.0455 1.7 63.2055 1.83333 63.3122 2.06C63.4189 2.27333 63.4122 2.54 63.2922 2.86C63.1855 3.18 62.9989 3.61333 62.7322 4.16C62.6655 4.32 62.5922 4.48 62.5122 4.64C62.4455 4.8 62.3789 4.95333 62.3122 5.1C62.2989 5.15333 62.2789 5.2 62.2522 5.24C62.2389 5.28 62.2255 5.32 62.2122 5.36C62.4922 5.32 62.8989 5.18 63.4322 4.94C63.9789 4.68667 64.7122 4.19333 65.6322 3.46C66.1255 3.07333 66.5722 2.7 66.9722 2.34C67.3722 1.96667 67.6922 1.66 67.9322 1.42C68.1722 1.18 68.2922 1.06 68.2922 1.06C68.4522 0.873333 68.6455 0.813333 68.8722 0.88C68.9789 0.893333 69.0655 0.94 69.1322 1.02C69.1989 1.08667 69.2522 1.15333 69.2922 1.22C69.3855 1.40667 69.3922 1.62667 69.3122 1.88C69.2455 2.12 69.0989 2.51333 68.8722 3.06C68.7922 3.23333 68.7122 3.40667 68.6322 3.58C68.5655 3.75333 68.4989 3.91333 68.4322 4.06C68.4189 4.11333 68.4055 4.16 68.3922 4.2C68.3922 4.22667 68.3855 4.25333 68.3722 4.28C68.6255 4.24 68.8922 4.13333 69.1722 3.96C69.4655 3.77333 69.7455 3.56667 70.0122 3.34C70.2922 3.11333 70.5255 2.92 70.7122 2.76C70.8455 2.64 70.9922 2.58667 71.1522 2.6C71.3122 2.61333 71.4522 2.68 71.5722 2.8C71.6789 2.93333 71.7255 3.08 71.7122 3.24C71.7122 3.4 71.6455 3.54 71.5122 3.66C71.0989 4.02 70.6722 4.36 70.2322 4.68C69.8055 5 69.3722 5.24 68.9322 5.4C68.5055 5.54667 68.0722 5.56667 67.6322 5.46C67.4189 5.36667 67.2655 5.23333 67.1722 5.06C67.0922 4.87333 67.0655 4.66667 67.0922 4.44C67.1322 4.21333 67.2122 3.93333 67.3322 3.6C67.1855 3.73333 67.0322 3.86 66.8722 3.98C66.7255 4.1 66.5655 4.23333 66.3922 4.38C64.5522 5.83333 63.1189 6.56 62.0922 6.56ZM73.6567 6.6C73.5901 6.6 73.5234 6.59333 73.4567 6.58C73.3901 6.58 73.3167 6.57333 73.2367 6.56C73.0767 6.50667 72.9434 6.39333 72.8367 6.22C72.7834 6.11333 72.7567 5.96667 72.7567 5.78C72.7567 5.59333 72.8167 5.28667 72.9367 4.86C73.0567 4.43333 73.2501 3.8 73.5167 2.96C73.2234 3.06667 72.8834 3.19333 72.4967 3.34C72.1234 3.48667 71.7367 3.63333 71.3367 3.78C71.1901 3.83333 71.0434 3.82667 70.8967 3.76C70.7367 3.68 70.6234 3.56 70.5567 3.4C70.5034 3.25333 70.5167 3.10667 70.5967 2.96C70.6634 2.8 70.7767 2.68667 70.9367 2.62C71.5101 2.40667 72.0434 2.20667 72.5367 2.02C73.0434 1.83333 73.4567 1.68 73.7767 1.56C74.0967 1.44 74.2567 1.38 74.2567 1.38C74.3901 1.32667 74.5167 1.32 74.6367 1.36C74.8101 1.4 74.9367 1.5 75.0167 1.66C75.0834 1.78 75.1034 1.88667 75.0767 1.98C75.0634 2.07333 75.0434 2.17333 75.0167 2.28C74.9901 2.33333 74.9701 2.39333 74.9567 2.46C74.9434 2.51333 74.9234 2.58 74.8967 2.66C74.8034 2.88667 74.7034 3.16667 74.5967 3.5C74.5034 3.82 74.4034 4.14667 74.2967 4.48C74.2301 4.66667 74.1767 4.82667 74.1367 4.96C74.0967 5.09333 74.0634 5.21333 74.0367 5.32C74.2901 5.26667 74.6567 5.11333 75.1367 4.86C75.5501 4.63333 75.9901 4.37333 76.4567 4.08C76.9367 3.77333 77.4234 3.45333 77.9167 3.12C78.0234 3.05333 78.1301 2.98667 78.2367 2.92C78.3567 2.85333 78.4634 2.78 78.5567 2.7C78.7034 2.60667 78.8567 2.58 79.0167 2.62C79.1901 2.64667 79.3234 2.73333 79.4167 2.88C79.5101 3.01333 79.5367 3.16 79.4967 3.32C79.4701 3.48 79.3834 3.60667 79.2367 3.7C79.1301 3.78 79.0167 3.86 78.8967 3.94C78.7901 4.00667 78.6767 4.08 78.5567 4.16C78.0501 4.49333 77.5567 4.81333 77.0767 5.12C76.5967 5.42667 76.1434 5.69333 75.7167 5.92C74.8501 6.37333 74.1634 6.6 73.6567 6.6ZM81.5897 4.82C81.523 4.82 81.4697 4.81333 81.4297 4.8C81.2164 4.74667 81.063 4.66667 80.9697 4.56C80.8897 4.44 80.8364 4.34667 80.8097 4.28C80.7164 3.98667 80.7497 3.68667 80.9097 3.38C81.0697 3.06 81.2764 2.72667 81.5297 2.38C81.6097 2.27333 81.683 2.16 81.7497 2.04C81.8297 1.90667 81.8964 1.79333 81.9497 1.7C81.963 1.68667 81.983 1.66 82.0097 1.62C81.9297 1.64667 81.8297 1.68667 81.7097 1.74C81.603 1.79333 81.4764 1.87333 81.3297 1.98C81.0897 2.12667 80.8364 2.32 80.5697 2.56C80.303 2.78667 80.0297 3.02667 79.7497 3.28C79.683 3.33333 79.6097 3.39333 79.5297 3.46C79.463 3.52667 79.3964 3.59333 79.3297 3.66C79.2097 3.76667 79.0697 3.82 78.9097 3.82C78.7364 3.80667 78.5964 3.73333 78.4897 3.6C78.3697 3.48 78.3164 3.34 78.3297 3.18C78.343 3.00667 78.4097 2.86667 78.5297 2.76C78.5964 2.69333 78.6697 2.62667 78.7497 2.56C78.8164 2.49333 78.883 2.43333 78.9497 2.38C79.3764 1.99333 79.7964 1.64 80.2097 1.32C80.623 0.986667 81.0297 0.733333 81.4297 0.56C81.8297 0.386666 82.2164 0.353333 82.5897 0.46C82.8164 0.513333 82.9764 0.606667 83.0697 0.74C83.1764 0.86 83.2364 0.966666 83.2497 1.06C83.3697 1.35333 83.343 1.66667 83.1697 2C82.9964 2.32 82.7764 2.67333 82.5097 3.06C82.483 3.08667 82.4497 3.13333 82.4097 3.2C82.383 3.25333 82.3497 3.30667 82.3097 3.36C82.5097 3.28 82.7697 3.18 83.0897 3.06C83.4097 2.94 83.7964 2.79333 84.2497 2.62C84.423 2.56667 84.583 2.58 84.7297 2.66C84.8764 2.72667 84.9764 2.84 85.0297 3C85.0964 3.14667 85.0897 3.3 85.0097 3.46C84.943 3.60667 84.8364 3.71333 84.6897 3.78C84.263 3.92667 83.8764 4.06 83.5297 4.18C83.183 4.3 82.8897 4.40667 82.6497 4.5C82.5164 4.55333 82.3964 4.6 82.2897 4.64C82.1964 4.66667 82.1097 4.69333 82.0297 4.72C81.9364 4.74667 81.8564 4.77333 81.7897 4.8C81.723 4.81333 81.6564 4.82 81.5897 4.82ZM87.0975 4.82C87.0308 4.82 86.9775 4.81333 86.9375 4.8C86.7242 4.74667 86.5708 4.66667 86.4775 4.56C86.3975 4.44 86.3442 4.34667 86.3175 4.28C86.2242 3.98667 86.2575 3.68667 86.4175 3.38C86.5775 3.06 86.7842 2.72667 87.0375 2.38C87.1175 2.27333 87.1908 2.16 87.2575 2.04C87.3375 1.90667 87.4042 1.79333 87.4575 1.7C87.4708 1.68667 87.4908 1.66 87.5175 1.62C87.4375 1.64667 87.3375 1.68667 87.2175 1.74C87.1108 1.79333 86.9842 1.87333 86.8375 1.98C86.5975 2.12667 86.3442 2.32 86.0775 2.56C85.8108 2.78667 85.5375 3.02667 85.2575 3.28C85.1908 3.33333 85.1175 3.39333 85.0375 3.46C84.9708 3.52667 84.9042 3.59333 84.8375 3.66C84.7175 3.76667 84.5775 3.82 84.4175 3.82C84.2442 3.80667 84.1042 3.73333 83.9975 3.6C83.8775 3.48 83.8242 3.34 83.8375 3.18C83.8508 3.00667 83.9175 2.86667 84.0375 2.76C84.1042 2.69333 84.1775 2.62667 84.2575 2.56C84.3242 2.49333 84.3908 2.43333 84.4575 2.38C84.8842 1.99333 85.3042 1.64 85.7175 1.32C86.1308 0.986667 86.5375 0.733333 86.9375 0.56C87.3375 0.386666 87.7242 0.353333 88.0975 0.46C88.3242 0.513333 88.4842 0.606667 88.5775 0.74C88.6842 0.86 88.7442 0.966666 88.7575 1.06C88.8775 1.35333 88.8508 1.66667 88.6775 2C88.5042 2.32 88.2842 2.67333 88.0175 3.06C87.9908 3.08667 87.9575 3.13333 87.9175 3.2C87.8908 3.25333 87.8575 3.30667 87.8175 3.36C88.0175 3.28 88.2775 3.18 88.5975 3.06C88.9175 2.94 89.3042 2.79333 89.7575 2.62C89.9308 2.56667 90.0908 2.58 90.2375 2.66C90.3842 2.72667 90.4842 2.84 90.5375 3C90.6042 3.14667 90.5975 3.3 90.5175 3.46C90.4508 3.60667 90.3442 3.71333 90.1975 3.78C89.7708 3.92667 89.3842 4.06 89.0375 4.18C88.6908 4.3 88.3975 4.40667 88.1575 4.5C88.0242 4.55333 87.9042 4.6 87.7975 4.64C87.7042 4.66667 87.6175 4.69333 87.5375 4.72C87.4442 4.74667 87.3642 4.77333 87.2975 4.8C87.2308 4.81333 87.1642 4.82 87.0975 4.82ZM92.6053 4.82C92.5386 4.82 92.4853 4.81333 92.4453 4.8C92.232 4.74667 92.0786 4.66667 91.9853 4.56C91.9053 4.44 91.852 4.34667 91.8253 4.28C91.732 3.98667 91.7653 3.68667 91.9253 3.38C92.0853 3.06 92.292 2.72667 92.5453 2.38C92.6253 2.27333 92.6986 2.16 92.7653 2.04C92.8453 1.90667 92.912 1.79333 92.9653 1.7C92.9786 1.68667 92.9986 1.66 93.0253 1.62C92.9453 1.64667 92.8453 1.68667 92.7253 1.74C92.6186 1.79333 92.492 1.87333 92.3453 1.98C92.1053 2.12667 91.852 2.32 91.5853 2.56C91.3186 2.78667 91.0453 3.02667 90.7653 3.28C90.6986 3.33333 90.6253 3.39333 90.5453 3.46C90.4786 3.52667 90.412 3.59333 90.3453 3.66C90.2253 3.76667 90.0853 3.82 89.9253 3.82C89.752 3.80667 89.612 3.73333 89.5053 3.6C89.3853 3.48 89.332 3.34 89.3453 3.18C89.3586 3.00667 89.4253 2.86667 89.5453 2.76C89.612 2.69333 89.6853 2.62667 89.7653 2.56C89.832 2.49333 89.8986 2.43333 89.9653 2.38C90.392 1.99333 90.812 1.64 91.2253 1.32C91.6386 0.986667 92.0453 0.733333 92.4453 0.56C92.8453 0.386666 93.232 0.353333 93.6053 0.46C93.832 0.513333 93.992 0.606667 94.0853 0.74C94.192 0.86 94.252 0.966666 94.2653 1.06C94.3853 1.35333 94.3586 1.66667 94.1853 2C94.012 2.32 93.792 2.67333 93.5253 3.06C93.4986 3.08667 93.4653 3.13333 93.4253 3.2C93.3986 3.25333 93.3653 3.30667 93.3253 3.36C93.5253 3.28 93.7853 3.18 94.1053 3.06C94.4253 2.94 94.812 2.79333 95.2653 2.62C95.4386 2.56667 95.5986 2.58 95.7453 2.66C95.892 2.72667 95.992 2.84 96.0453 3C96.112 3.14667 96.1053 3.3 96.0253 3.46C95.9586 3.60667 95.852 3.71333 95.7053 3.78C95.2786 3.92667 94.892 4.06 94.5453 4.18C94.1986 4.3 93.9053 4.40667 93.6653 4.5C93.532 4.55333 93.412 4.6 93.3053 4.64C93.212 4.66667 93.1253 4.69333 93.0453 4.72C92.952 4.74667 92.872 4.77333 92.8053 4.8C92.7386 4.81333 92.672 4.82 92.6053 4.82ZM100.013 5.42C99.8531 5.42 99.7198 5.37333 99.6131 5.28C99.3998 5.10667 99.3398 4.88667 99.4331 4.62C99.4331 4.60667 99.4798 4.44667 99.5731 4.14C99.6798 3.83333 99.7998 3.48667 99.9331 3.1C99.9998 2.87333 100.06 2.68 100.113 2.52C100.166 2.34667 100.213 2.19333 100.253 2.06C99.8931 2.19333 99.4531 2.36 98.9331 2.56C98.4131 2.74667 97.8665 2.94667 97.2931 3.16C96.7331 3.37333 96.1865 3.58 95.6531 3.78C95.5065 3.83333 95.3598 3.82667 95.2131 3.76C95.0531 3.68 94.9398 3.56 94.8731 3.4C94.8198 3.25333 94.8331 3.10667 94.9131 2.96C94.9798 2.8 95.0931 2.68667 95.2531 2.62C95.8531 2.40667 96.4731 2.18667 97.1131 1.96C97.7531 1.72 98.3465 1.5 98.8931 1.3C99.4398 1.08667 99.8865 0.913333 100.233 0.78C100.58 0.646666 100.753 0.579999 100.753 0.579999C100.82 0.566666 100.886 0.56 100.953 0.56C101.02 0.546667 101.08 0.553333 101.133 0.579999C101.32 0.606666 101.453 0.713333 101.533 0.899999C101.6 1.00667 101.626 1.14667 101.613 1.32C101.613 1.48 101.58 1.71333 101.513 2.02C101.473 2.19333 101.42 2.38667 101.353 2.6C101.3 2.8 101.226 3.03333 101.133 3.3C101.12 3.35333 101.106 3.4 101.093 3.44C101.08 3.48 101.066 3.52667 101.053 3.58C101.586 3.28667 102.24 2.98 103.013 2.66C103.16 2.59333 103.306 2.59333 103.453 2.66C103.613 2.71333 103.72 2.81333 103.773 2.96C103.853 3.10667 103.86 3.26 103.793 3.42C103.726 3.58 103.62 3.69333 103.473 3.76C102.873 4.02667 102.333 4.28 101.853 4.52C101.386 4.76 101.013 4.95333 100.733 5.1C100.453 5.24667 100.313 5.32 100.313 5.32C100.233 5.38667 100.133 5.42 100.013 5.42ZM107.787 5.42C107.627 5.42 107.493 5.37333 107.387 5.28C107.173 5.10667 107.113 4.88667 107.207 4.62C107.207 4.60667 107.253 4.44667 107.347 4.14C107.453 3.83333 107.573 3.48667 107.707 3.1C107.773 2.87333 107.833 2.68 107.887 2.52C107.94 2.34667 107.987 2.19333 108.027 2.06C107.667 2.19333 107.227 2.36 106.707 2.56C106.187 2.74667 105.64 2.94667 105.067 3.16C104.507 3.37333 103.96 3.58 103.427 3.78C103.28 3.83333 103.133 3.82667 102.987 3.76C102.827 3.68 102.713 3.56 102.647 3.4C102.593 3.25333 102.607 3.10667 102.687 2.96C102.753 2.8 102.867 2.68667 103.027 2.62C103.627 2.40667 104.247 2.18667 104.887 1.96C105.527 1.72 106.12 1.5 106.667 1.3C107.213 1.08667 107.66 0.913333 108.007 0.78C108.353 0.646666 108.527 0.579999 108.527 0.579999C108.593 0.566666 108.66 0.56 108.727 0.56C108.793 0.546667 108.853 0.553333 108.907 0.579999C109.093 0.606666 109.227 0.713333 109.307 0.899999C109.373 1.00667 109.4 1.14667 109.387 1.32C109.387 1.48 109.353 1.71333 109.287 2.02C109.247 2.19333 109.193 2.38667 109.127 2.6C109.073 2.8 109 3.03333 108.907 3.3C108.893 3.35333 108.88 3.4 108.867 3.44C108.853 3.48 108.84 3.52667 108.827 3.58C109.36 3.28667 110.013 2.98 110.787 2.66C110.933 2.59333 111.08 2.59333 111.227 2.66C111.387 2.71333 111.493 2.81333 111.547 2.96C111.627 3.10667 111.633 3.26 111.567 3.42C111.5 3.58 111.393 3.69333 111.247 3.76C110.647 4.02667 110.107 4.28 109.627 4.52C109.16 4.76 108.787 4.95333 108.507 5.1C108.227 5.24667 108.087 5.32 108.087 5.32C108.007 5.38667 107.907 5.42 107.787 5.42ZM113.52 6.6C113.453 6.6 113.387 6.59333 113.32 6.58C113.253 6.58 113.18 6.57333 113.1 6.56C112.94 6.50667 112.807 6.39333 112.7 6.22C112.647 6.11333 112.62 5.96667 112.62 5.78C112.62 5.59333 112.68 5.28667 112.8 4.86C112.92 4.43333 113.113 3.8 113.38 2.96C113.087 3.06667 112.747 3.19333 112.36 3.34C111.987 3.48667 111.6 3.63333 111.2 3.78C111.053 3.83333 110.907 3.82667 110.76 3.76C110.6 3.68 110.487 3.56 110.42 3.4C110.367 3.25333 110.38 3.10667 110.46 2.96C110.527 2.8 110.64 2.68667 110.8 2.62C111.373 2.40667 111.907 2.20667 112.4 2.02C112.907 1.83333 113.32 1.68 113.64 1.56C113.96 1.44 114.12 1.38 114.12 1.38C114.253 1.32667 114.38 1.32 114.5 1.36C114.673 1.4 114.8 1.5 114.88 1.66C114.947 1.78 114.967 1.88667 114.94 1.98C114.927 2.07333 114.907 2.17333 114.88 2.28C114.853 2.33333 114.833 2.39333 114.82 2.46C114.807 2.51333 114.787 2.58 114.76 2.66C114.667 2.88667 114.567 3.16667 114.46 3.5C114.367 3.82 114.267 4.14667 114.16 4.48C114.093 4.66667 114.04 4.82667 114 4.96C113.96 5.09333 113.927 5.21333 113.9 5.32C114.153 5.26667 114.52 5.11333 115 4.86C115.413 4.63333 115.853 4.37333 116.32 4.08C116.8 3.77333 117.287 3.45333 117.78 3.12C117.887 3.05333 117.993 2.98667 118.1 2.92C118.22 2.85333 118.327 2.78 118.42 2.7C118.567 2.60667 118.72 2.58 118.88 2.62C119.053 2.64667 119.187 2.73333 119.28 2.88C119.373 3.01333 119.4 3.16 119.36 3.32C119.333 3.48 119.247 3.60667 119.1 3.7C118.993 3.78 118.88 3.86 118.76 3.94C118.653 4.00667 118.54 4.08 118.42 4.16C117.913 4.49333 117.42 4.81333 116.94 5.12C116.46 5.42667 116.007 5.69333 115.58 5.92C114.713 6.37333 114.027 6.6 113.52 6.6ZM131.18 4.82C131.113 4.82 131.06 4.81333 131.02 4.8C130.806 4.74667 130.653 4.66667 130.56 4.56C130.48 4.44 130.426 4.34667 130.4 4.28C130.306 3.98667 130.34 3.68667 130.5 3.38C130.66 3.06 130.866 2.72667 131.12 2.38C131.2 2.27333 131.273 2.16 131.34 2.04C131.42 1.90667 131.486 1.79333 131.54 1.7C131.553 1.68667 131.573 1.66 131.6 1.62C131.52 1.64667 131.42 1.68667 131.3 1.74C131.193 1.79333 131.066 1.87333 130.92 1.98C130.68 2.12667 130.426 2.32 130.16 2.56C129.893 2.78667 129.62 3.02667 129.34 3.28C129.273 3.33333 129.2 3.39333 129.12 3.46C129.053 3.52667 128.986 3.59333 128.92 3.66C128.8 3.76667 128.66 3.82 128.5 3.82C128.326 3.80667 128.186 3.73333 128.08 3.6C127.96 3.48 127.906 3.34 127.92 3.18C127.933 3.00667 128 2.86667 128.12 2.76C128.186 2.69333 128.26 2.62667 128.34 2.56C128.406 2.49333 128.473 2.43333 128.54 2.38C128.966 1.99333 129.386 1.64 129.8 1.32C130.213 0.986667 130.62 0.733333 131.02 0.56C131.42 0.386666 131.806 0.353333 132.18 0.46C132.406 0.513333 132.566 0.606667 132.66 0.74C132.766 0.86 132.826 0.966666 132.84 1.06C132.96 1.35333 132.933 1.66667 132.76 2C132.586 2.32 132.366 2.67333 132.1 3.06C132.073 3.08667 132.04 3.13333 132 3.2C131.973 3.25333 131.94 3.30667 131.9 3.36C132.1 3.28 132.36 3.18 132.68 3.06C133 2.94 133.386 2.79333 133.84 2.62C134.013 2.56667 134.173 2.58 134.32 2.66C134.466 2.72667 134.566 2.84 134.62 3C134.686 3.14667 134.68 3.3 134.6 3.46C134.533 3.60667 134.426 3.71333 134.28 3.78C133.853 3.92667 133.466 4.06 133.12 4.18C132.773 4.3 132.48 4.40667 132.24 4.5C132.106 4.55333 131.986 4.6 131.88 4.64C131.786 4.66667 131.7 4.69333 131.62 4.72C131.526 4.74667 131.446 4.77333 131.38 4.8C131.313 4.81333 131.246 4.82 131.18 4.82ZM135.627 6.56C135.534 6.56 135.441 6.54667 135.347 6.52C135.254 6.50667 135.161 6.49333 135.067 6.48C134.827 6.41333 134.661 6.27333 134.567 6.06C134.447 5.79333 134.447 5.47333 134.567 5.1C134.701 4.71333 134.914 4.22 135.207 3.62C135.261 3.51333 135.314 3.39333 135.367 3.26C135.434 3.12667 135.494 3 135.547 2.88C135.374 2.94667 135.187 3.06 134.987 3.22C134.801 3.36667 134.607 3.52 134.407 3.68C134.274 3.77333 134.127 3.81333 133.967 3.8C133.794 3.77333 133.654 3.7 133.547 3.58C133.454 3.44667 133.421 3.3 133.447 3.14C133.461 2.98 133.527 2.84 133.647 2.72C133.834 2.58667 134.027 2.44 134.227 2.28C134.441 2.12 134.654 1.98667 134.867 1.88C135.414 1.6 135.914 1.52667 136.367 1.66C136.581 1.7 136.741 1.83333 136.847 2.06C136.954 2.27333 136.947 2.54 136.827 2.86C136.721 3.18 136.534 3.61333 136.267 4.16C136.201 4.32 136.127 4.48 136.047 4.64C135.981 4.8 135.914 4.95333 135.847 5.1C135.834 5.15333 135.814 5.2 135.787 5.24C135.774 5.28 135.761 5.32 135.747 5.36C136.027 5.32 136.434 5.18 136.967 4.94C137.514 4.68667 138.247 4.19333 139.167 3.46C139.661 3.07333 140.107 2.7 140.507 2.34C140.907 1.96667 141.227 1.66 141.467 1.42C141.707 1.18 141.827 1.06 141.827 1.06C141.987 0.873333 142.181 0.813333 142.407 0.88C142.514 0.893333 142.601 0.94 142.667 1.02C142.734 1.08667 142.787 1.15333 142.827 1.22C142.921 1.40667 142.927 1.62667 142.847 1.88C142.781 2.12 142.634 2.51333 142.407 3.06C142.327 3.23333 142.247 3.40667 142.167 3.58C142.101 3.75333 142.034 3.91333 141.967 4.06C141.954 4.11333 141.941 4.16 141.927 4.2C141.927 4.22667 141.921 4.25333 141.907 4.28C142.161 4.24 142.427 4.13333 142.707 3.96C143.001 3.77333 143.281 3.56667 143.547 3.34C143.827 3.11333 144.061 2.92 144.247 2.76C144.381 2.64 144.527 2.58667 144.687 2.6C144.847 2.61333 144.987 2.68 145.107 2.8C145.214 2.93333 145.261 3.08 145.247 3.24C145.247 3.4 145.181 3.54 145.047 3.66C144.634 4.02 144.207 4.36 143.767 4.68C143.341 5 142.907 5.24 142.467 5.4C142.041 5.54667 141.607 5.56667 141.167 5.46C140.954 5.36667 140.801 5.23333 140.707 5.06C140.627 4.87333 140.601 4.66667 140.627 4.44C140.667 4.21333 140.747 3.93333 140.867 3.6C140.721 3.73333 140.567 3.86 140.407 3.98C140.261 4.1 140.101 4.23333 139.927 4.38C138.087 5.83333 136.654 6.56 135.627 6.56ZM147.332 4.82C147.265 4.82 147.212 4.81333 147.172 4.8C146.959 4.74667 146.805 4.66667 146.712 4.56C146.632 4.44 146.579 4.34667 146.552 4.28C146.459 3.98667 146.492 3.68667 146.652 3.38C146.812 3.06 147.019 2.72667 147.272 2.38C147.352 2.27333 147.425 2.16 147.492 2.04C147.572 1.90667 147.639 1.79333 147.692 1.7C147.705 1.68667 147.725 1.66 147.752 1.62C147.672 1.64667 147.572 1.68667 147.452 1.74C147.345 1.79333 147.219 1.87333 147.072 1.98C146.832 2.12667 146.579 2.32 146.312 2.56C146.045 2.78667 145.772 3.02667 145.492 3.28C145.425 3.33333 145.352 3.39333 145.272 3.46C145.205 3.52667 145.139 3.59333 145.072 3.66C144.952 3.76667 144.812 3.82 144.652 3.82C144.479 3.80667 144.339 3.73333 144.232 3.6C144.112 3.48 144.059 3.34 144.072 3.18C144.085 3.00667 144.152 2.86667 144.272 2.76C144.339 2.69333 144.412 2.62667 144.492 2.56C144.559 2.49333 144.625 2.43333 144.692 2.38C145.119 1.99333 145.539 1.64 145.952 1.32C146.365 0.986667 146.772 0.733333 147.172 0.56C147.572 0.386666 147.959 0.353333 148.332 0.46C148.559 0.513333 148.719 0.606667 148.812 0.74C148.919 0.86 148.979 0.966666 148.992 1.06C149.112 1.35333 149.085 1.66667 148.912 2C148.739 2.32 148.519 2.67333 148.252 3.06C148.225 3.08667 148.192 3.13333 148.152 3.2C148.125 3.25333 148.092 3.30667 148.052 3.36C148.252 3.28 148.512 3.18 148.832 3.06C149.152 2.94 149.539 2.79333 149.992 2.62C150.165 2.56667 150.325 2.58 150.472 2.66C150.619 2.72667 150.719 2.84 150.772 3C150.839 3.14667 150.832 3.3 150.752 3.46C150.685 3.60667 150.579 3.71333 150.432 3.78C150.005 3.92667 149.619 4.06 149.272 4.18C148.925 4.3 148.632 4.40667 148.392 4.5C148.259 4.55333 148.139 4.6 148.032 4.64C147.939 4.66667 147.852 4.69333 147.772 4.72C147.679 4.74667 147.599 4.77333 147.532 4.8C147.465 4.81333 147.399 4.82 147.332 4.82ZM151.78 6.56C151.686 6.56 151.593 6.54667 151.5 6.52C151.406 6.50667 151.313 6.49333 151.22 6.48C150.98 6.41333 150.813 6.27333 150.72 6.06C150.6 5.79333 150.6 5.47333 150.72 5.1C150.853 4.71333 151.066 4.22 151.36 3.62C151.413 3.51333 151.466 3.39333 151.52 3.26C151.586 3.12667 151.646 3 151.7 2.88C151.526 2.94667 151.34 3.06 151.14 3.22C150.953 3.36667 150.76 3.52 150.56 3.68C150.426 3.77333 150.28 3.81333 150.12 3.8C149.946 3.77333 149.806 3.7 149.7 3.58C149.606 3.44667 149.573 3.3 149.6 3.14C149.613 2.98 149.68 2.84 149.8 2.72C149.986 2.58667 150.18 2.44 150.38 2.28C150.593 2.12 150.806 1.98667 151.02 1.88C151.566 1.6 152.066 1.52667 152.52 1.66C152.733 1.7 152.893 1.83333 153 2.06C153.106 2.27333 153.1 2.54 152.98 2.86C152.873 3.18 152.686 3.61333 152.42 4.16C152.353 4.32 152.28 4.48 152.2 4.64C152.133 4.8 152.066 4.95333 152 5.1C151.986 5.15333 151.966 5.2 151.94 5.24C151.926 5.28 151.913 5.32 151.9 5.36C152.18 5.32 152.586 5.18 153.12 4.94C153.666 4.68667 154.4 4.19333 155.32 3.46C155.813 3.07333 156.26 2.7 156.66 2.34C157.06 1.96667 157.38 1.66 157.62 1.42C157.86 1.18 157.98 1.06 157.98 1.06C158.14 0.873333 158.333 0.813333 158.56 0.88C158.666 0.893333 158.753 0.94 158.82 1.02C158.886 1.08667 158.94 1.15333 158.98 1.22C159.073 1.40667 159.08 1.62667 159 1.88C158.933 2.12 158.786 2.51333 158.56 3.06C158.48 3.23333 158.4 3.40667 158.32 3.58C158.253 3.75333 158.186 3.91333 158.12 4.06C158.106 4.11333 158.093 4.16 158.08 4.2C158.08 4.22667 158.073 4.25333 158.06 4.28C158.313 4.24 158.58 4.13333 158.86 3.96C159.153 3.77333 159.433 3.56667 159.7 3.34C159.98 3.11333 160.213 2.92 160.4 2.76C160.533 2.64 160.68 2.58667 160.84 2.6C161 2.61333 161.14 2.68 161.26 2.8C161.366 2.93333 161.413 3.08 161.4 3.24C161.4 3.4 161.333 3.54 161.2 3.66C160.786 4.02 160.36 4.36 159.92 4.68C159.493 5 159.06 5.24 158.62 5.4C158.193 5.54667 157.76 5.56667 157.32 5.46C157.106 5.36667 156.953 5.23333 156.86 5.06C156.78 4.87333 156.753 4.66667 156.78 4.44C156.82 4.21333 156.9 3.93333 157.02 3.6C156.873 3.73333 156.72 3.86 156.56 3.98C156.413 4.1 156.253 4.23333 156.08 4.38C154.24 5.83333 152.806 6.56 151.78 6.56ZM163.344 6.6C163.278 6.6 163.211 6.59333 163.144 6.58C163.078 6.58 163.004 6.57333 162.924 6.56C162.764 6.50667 162.631 6.39333 162.524 6.22C162.471 6.11333 162.444 5.96667 162.444 5.78C162.444 5.59333 162.504 5.28667 162.624 4.86C162.744 4.43333 162.938 3.8 163.204 2.96C162.911 3.06667 162.571 3.19333 162.184 3.34C161.811 3.48667 161.424 3.63333 161.024 3.78C160.878 3.83333 160.731 3.82667 160.584 3.76C160.424 3.68 160.311 3.56 160.244 3.4C160.191 3.25333 160.204 3.10667 160.284 2.96C160.351 2.8 160.464 2.68667 160.624 2.62C161.198 2.40667 161.731 2.20667 162.224 2.02C162.731 1.83333 163.144 1.68 163.464 1.56C163.784 1.44 163.944 1.38 163.944 1.38C164.078 1.32667 164.204 1.32 164.324 1.36C164.498 1.4 164.624 1.5 164.704 1.66C164.771 1.78 164.791 1.88667 164.764 1.98C164.751 2.07333 164.731 2.17333 164.704 2.28C164.678 2.33333 164.658 2.39333 164.644 2.46C164.631 2.51333 164.611 2.58 164.584 2.66C164.491 2.88667 164.391 3.16667 164.284 3.5C164.191 3.82 164.091 4.14667 163.984 4.48C163.918 4.66667 163.864 4.82667 163.824 4.96C163.784 5.09333 163.751 5.21333 163.724 5.32C163.978 5.26667 164.344 5.11333 164.824 4.86C165.238 4.63333 165.678 4.37333 166.144 4.08C166.624 3.77333 167.111 3.45333 167.604 3.12C167.711 3.05333 167.818 2.98667 167.924 2.92C168.044 2.85333 168.151 2.78 168.244 2.7C168.391 2.60667 168.544 2.58 168.704 2.62C168.878 2.64667 169.011 2.73333 169.104 2.88C169.198 3.01333 169.224 3.16 169.184 3.32C169.158 3.48 169.071 3.60667 168.924 3.7C168.818 3.78 168.704 3.86 168.584 3.94C168.478 4.00667 168.364 4.08 168.244 4.16C167.738 4.49333 167.244 4.81333 166.764 5.12C166.284 5.42667 165.831 5.69333 165.404 5.92C164.538 6.37333 163.851 6.6 163.344 6.6ZM171.277 4.82C171.211 4.82 171.157 4.81333 171.117 4.8C170.904 4.74667 170.751 4.66667 170.657 4.56C170.577 4.44 170.524 4.34667 170.497 4.28C170.404 3.98667 170.437 3.68667 170.597 3.38C170.757 3.06 170.964 2.72667 171.217 2.38C171.297 2.27333 171.371 2.16 171.437 2.04C171.517 1.90667 171.584 1.79333 171.637 1.7C171.651 1.68667 171.671 1.66 171.697 1.62C171.617 1.64667 171.517 1.68667 171.397 1.74C171.291 1.79333 171.164 1.87333 171.017 1.98C170.777 2.12667 170.524 2.32 170.257 2.56C169.991 2.78667 169.717 3.02667 169.437 3.28C169.371 3.33333 169.297 3.39333 169.217 3.46C169.151 3.52667 169.084 3.59333 169.017 3.66C168.897 3.76667 168.757 3.82 168.597 3.82C168.424 3.80667 168.284 3.73333 168.177 3.6C168.057 3.48 168.004 3.34 168.017 3.18C168.031 3.00667 168.097 2.86667 168.217 2.76C168.284 2.69333 168.357 2.62667 168.437 2.56C168.504 2.49333 168.571 2.43333 168.637 2.38C169.064 1.99333 169.484 1.64 169.897 1.32C170.311 0.986667 170.717 0.733333 171.117 0.56C171.517 0.386666 171.904 0.353333 172.277 0.46C172.504 0.513333 172.664 0.606667 172.757 0.74C172.864 0.86 172.924 0.966666 172.937 1.06C173.057 1.35333 173.031 1.66667 172.857 2C172.684 2.32 172.464 2.67333 172.197 3.06C172.171 3.08667 172.137 3.13333 172.097 3.2C172.071 3.25333 172.037 3.30667 171.997 3.36C172.197 3.28 172.457 3.18 172.777 3.06C173.097 2.94 173.484 2.79333 173.937 2.62C174.111 2.56667 174.271 2.58 174.417 2.66C174.564 2.72667 174.664 2.84 174.717 3C174.784 3.14667 174.777 3.3 174.697 3.46C174.631 3.60667 174.524 3.71333 174.377 3.78C173.951 3.92667 173.564 4.06 173.217 4.18C172.871 4.3 172.577 4.40667 172.337 4.5C172.204 4.55333 172.084 4.6 171.977 4.64C171.884 4.66667 171.797 4.69333 171.717 4.72C171.624 4.74667 171.544 4.77333 171.477 4.8C171.411 4.81333 171.344 4.82 171.277 4.82ZM186.512 4.82C186.445 4.82 186.392 4.81333 186.352 4.8C186.138 4.74667 185.985 4.66667 185.892 4.56C185.812 4.44 185.758 4.34667 185.732 4.28C185.638 3.98667 185.672 3.68667 185.832 3.38C185.992 3.06 186.198 2.72667 186.452 2.38C186.532 2.27333 186.605 2.16 186.672 2.04C186.752 1.90667 186.818 1.79333 186.872 1.7C186.885 1.68667 186.905 1.66 186.932 1.62C186.852 1.64667 186.752 1.68667 186.632 1.74C186.525 1.79333 186.398 1.87333 186.252 1.98C186.012 2.12667 185.758 2.32 185.492 2.56C185.225 2.78667 184.952 3.02667 184.672 3.28C184.605 3.33333 184.532 3.39333 184.452 3.46C184.385 3.52667 184.318 3.59333 184.252 3.66C184.132 3.76667 183.992 3.82 183.832 3.82C183.658 3.80667 183.518 3.73333 183.412 3.6C183.292 3.48 183.238 3.34 183.252 3.18C183.265 3.00667 183.332 2.86667 183.452 2.76C183.518 2.69333 183.592 2.62667 183.672 2.56C183.738 2.49333 183.805 2.43333 183.872 2.38C184.298 1.99333 184.718 1.64 185.132 1.32C185.545 0.986667 185.952 0.733333 186.352 0.56C186.752 0.386666 187.138 0.353333 187.512 0.46C187.738 0.513333 187.898 0.606667 187.992 0.74C188.098 0.86 188.158 0.966666 188.172 1.06C188.292 1.35333 188.265 1.66667 188.092 2C187.918 2.32 187.698 2.67333 187.432 3.06C187.405 3.08667 187.372 3.13333 187.332 3.2C187.305 3.25333 187.272 3.30667 187.232 3.36C187.432 3.28 187.692 3.18 188.012 3.06C188.332 2.94 188.718 2.79333 189.172 2.62C189.345 2.56667 189.505 2.58 189.652 2.66C189.798 2.72667 189.898 2.84 189.952 3C190.018 3.14667 190.012 3.3 189.932 3.46C189.865 3.60667 189.758 3.71333 189.612 3.78C189.185 3.92667 188.798 4.06 188.452 4.18C188.105 4.3 187.812 4.40667 187.572 4.5C187.438 4.55333 187.318 4.6 187.212 4.64C187.118 4.66667 187.032 4.69333 186.952 4.72C186.858 4.74667 186.778 4.77333 186.712 4.8C186.645 4.81333 186.578 4.82 186.512 4.82ZM190.959 6.56C190.866 6.56 190.773 6.54667 190.679 6.52C190.586 6.50667 190.493 6.49333 190.399 6.48C190.159 6.41333 189.993 6.27333 189.899 6.06C189.779 5.79333 189.779 5.47333 189.899 5.1C190.033 4.71333 190.246 4.22 190.539 3.62C190.593 3.51333 190.646 3.39333 190.699 3.26C190.766 3.12667 190.826 3 190.879 2.88C190.706 2.94667 190.519 3.06 190.319 3.22C190.133 3.36667 189.939 3.52 189.739 3.68C189.606 3.77333 189.459 3.81333 189.299 3.8C189.126 3.77333 188.986 3.7 188.879 3.58C188.786 3.44667 188.753 3.3 188.779 3.14C188.793 2.98 188.859 2.84 188.979 2.72C189.166 2.58667 189.359 2.44 189.559 2.28C189.773 2.12 189.986 1.98667 190.199 1.88C190.746 1.6 191.246 1.52667 191.699 1.66C191.913 1.7 192.073 1.83333 192.179 2.06C192.286 2.27333 192.279 2.54 192.159 2.86C192.053 3.18 191.866 3.61333 191.599 4.16C191.533 4.32 191.459 4.48 191.379 4.64C191.313 4.8 191.246 4.95333 191.179 5.1C191.166 5.15333 191.146 5.2 191.119 5.24C191.106 5.28 191.093 5.32 191.079 5.36C191.359 5.32 191.766 5.18 192.299 4.94C192.846 4.68667 193.579 4.19333 194.499 3.46C194.993 3.07333 195.439 2.7 195.839 2.34C196.239 1.96667 196.559 1.66 196.799 1.42C197.039 1.18 197.159 1.06 197.159 1.06C197.319 0.873333 197.513 0.813333 197.739 0.88C197.846 0.893333 197.933 0.94 197.999 1.02C198.066 1.08667 198.119 1.15333 198.159 1.22C198.253 1.40667 198.259 1.62667 198.179 1.88C198.113 2.12 197.966 2.51333 197.739 3.06C197.659 3.23333 197.579 3.40667 197.499 3.58C197.433 3.75333 197.366 3.91333 197.299 4.06C197.286 4.11333 197.273 4.16 197.259 4.2C197.259 4.22667 197.253 4.25333 197.239 4.28C197.493 4.24 197.759 4.13333 198.039 3.96C198.333 3.77333 198.613 3.56667 198.879 3.34C199.159 3.11333 199.393 2.92 199.579 2.76C199.713 2.64 199.859 2.58667 200.019 2.6C200.179 2.61333 200.319 2.68 200.439 2.8C200.546 2.93333 200.593 3.08 200.579 3.24C200.579 3.4 200.513 3.54 200.379 3.66C199.966 4.02 199.539 4.36 199.099 4.68C198.673 5 198.239 5.24 197.799 5.4C197.373 5.54667 196.939 5.56667 196.499 5.46C196.286 5.36667 196.133 5.23333 196.039 5.06C195.959 4.87333 195.933 4.66667 195.959 4.44C195.999 4.21333 196.079 3.93333 196.199 3.6C196.053 3.73333 195.899 3.86 195.739 3.98C195.593 4.1 195.433 4.23333 195.259 4.38C193.419 5.83333 191.986 6.56 190.959 6.56ZM212.39 4.82C212.324 4.82 212.27 4.81333 212.23 4.8C212.017 4.74667 211.864 4.66667 211.77 4.56C211.69 4.44 211.637 4.34667 211.61 4.28C211.517 3.98667 211.55 3.68667 211.71 3.38C211.87 3.06 212.077 2.72667 212.33 2.38C212.41 2.27333 212.484 2.16 212.55 2.04C212.63 1.90667 212.697 1.79333 212.75 1.7C212.764 1.68667 212.784 1.66 212.81 1.62C212.73 1.64667 212.63 1.68667 212.51 1.74C212.404 1.79333 212.277 1.87333 212.13 1.98C211.89 2.12667 211.637 2.32 211.37 2.56C211.104 2.78667 210.83 3.02667 210.55 3.28C210.484 3.33333 210.41 3.39333 210.33 3.46C210.264 3.52667 210.197 3.59333 210.13 3.66C210.01 3.76667 209.87 3.82 209.71 3.82C209.537 3.80667 209.397 3.73333 209.29 3.6C209.17 3.48 209.117 3.34 209.13 3.18C209.144 3.00667 209.21 2.86667 209.33 2.76C209.397 2.69333 209.47 2.62667 209.55 2.56C209.617 2.49333 209.684 2.43333 209.75 2.38C210.177 1.99333 210.597 1.64 211.01 1.32C211.424 0.986667 211.83 0.733333 212.23 0.56C212.63 0.386666 213.017 0.353333 213.39 0.46C213.617 0.513333 213.777 0.606667 213.87 0.74C213.977 0.86 214.037 0.966666 214.05 1.06C214.17 1.35333 214.144 1.66667 213.97 2C213.797 2.32 213.577 2.67333 213.31 3.06C213.284 3.08667 213.25 3.13333 213.21 3.2C213.184 3.25333 213.15 3.30667 213.11 3.36C213.31 3.28 213.57 3.18 213.89 3.06C214.21 2.94 214.597 2.79333 215.05 2.62C215.224 2.56667 215.384 2.58 215.53 2.66C215.677 2.72667 215.777 2.84 215.83 3C215.897 3.14667 215.89 3.3 215.81 3.46C215.744 3.60667 215.637 3.71333 215.49 3.78C215.064 3.92667 214.677 4.06 214.33 4.18C213.984 4.3 213.69 4.40667 213.45 4.5C213.317 4.55333 213.197 4.6 213.09 4.64C212.997 4.66667 212.91 4.69333 212.83 4.72C212.737 4.74667 212.657 4.77333 212.59 4.8C212.524 4.81333 212.457 4.82 212.39 4.82ZM219.798 5.42C219.638 5.42 219.505 5.37333 219.398 5.28C219.185 5.10667 219.125 4.88667 219.218 4.62C219.218 4.60667 219.265 4.44667 219.358 4.14C219.465 3.83333 219.585 3.48667 219.718 3.1C219.785 2.87333 219.845 2.68 219.898 2.52C219.952 2.34667 219.998 2.19333 220.038 2.06C219.678 2.19333 219.238 2.36 218.718 2.56C218.198 2.74667 217.652 2.94667 217.078 3.16C216.518 3.37333 215.972 3.58 215.438 3.78C215.292 3.83333 215.145 3.82667 214.998 3.76C214.838 3.68 214.725 3.56 214.658 3.4C214.605 3.25333 214.618 3.10667 214.698 2.96C214.765 2.8 214.878 2.68667 215.038 2.62C215.638 2.40667 216.258 2.18667 216.898 1.96C217.538 1.72 218.132 1.5 218.678 1.3C219.225 1.08667 219.672 0.913333 220.018 0.78C220.365 0.646666 220.538 0.579999 220.538 0.579999C220.605 0.566666 220.672 0.56 220.738 0.56C220.805 0.546667 220.865 0.553333 220.918 0.579999C221.105 0.606666 221.238 0.713333 221.318 0.899999C221.385 1.00667 221.412 1.14667 221.398 1.32C221.398 1.48 221.365 1.71333 221.298 2.02C221.258 2.19333 221.205 2.38667 221.138 2.6C221.085 2.8 221.012 3.03333 220.918 3.3C220.905 3.35333 220.892 3.4 220.878 3.44C220.865 3.48 220.852 3.52667 220.838 3.58C221.372 3.28667 222.025 2.98 222.798 2.66C222.945 2.59333 223.092 2.59333 223.238 2.66C223.398 2.71333 223.505 2.81333 223.558 2.96C223.638 3.10667 223.645 3.26 223.578 3.42C223.512 3.58 223.405 3.69333 223.258 3.76C222.658 4.02667 222.118 4.28 221.638 4.52C221.172 4.76 220.798 4.95333 220.518 5.1C220.238 5.24667 220.098 5.32 220.098 5.32C220.018 5.38667 219.918 5.42 219.798 5.42ZM225.672 4.82C225.605 4.82 225.552 4.81333 225.512 4.8C225.298 4.74667 225.145 4.66667 225.052 4.56C224.972 4.44 224.918 4.34667 224.892 4.28C224.798 3.98667 224.832 3.68667 224.992 3.38C225.152 3.06 225.358 2.72667 225.612 2.38C225.692 2.27333 225.765 2.16 225.832 2.04C225.912 1.90667 225.978 1.79333 226.032 1.7C226.045 1.68667 226.065 1.66 226.092 1.62C226.012 1.64667 225.912 1.68667 225.792 1.74C225.685 1.79333 225.558 1.87333 225.412 1.98C225.172 2.12667 224.918 2.32 224.652 2.56C224.385 2.78667 224.112 3.02667 223.832 3.28C223.765 3.33333 223.692 3.39333 223.612 3.46C223.545 3.52667 223.478 3.59333 223.412 3.66C223.292 3.76667 223.152 3.82 222.992 3.82C222.818 3.80667 222.678 3.73333 222.572 3.6C222.452 3.48 222.398 3.34 222.412 3.18C222.425 3.00667 222.492 2.86667 222.612 2.76C222.678 2.69333 222.752 2.62667 222.832 2.56C222.898 2.49333 222.965 2.43333 223.032 2.38C223.458 1.99333 223.878 1.64 224.292 1.32C224.705 0.986667 225.112 0.733333 225.512 0.56C225.912 0.386666 226.298 0.353333 226.672 0.46C226.898 0.513333 227.058 0.606667 227.152 0.74C227.258 0.86 227.318 0.966666 227.332 1.06C227.452 1.35333 227.425 1.66667 227.252 2C227.078 2.32 226.858 2.67333 226.592 3.06C226.565 3.08667 226.532 3.13333 226.492 3.2C226.465 3.25333 226.432 3.30667 226.392 3.36C226.592 3.28 226.852 3.18 227.172 3.06C227.492 2.94 227.878 2.79333 228.332 2.62C228.505 2.56667 228.665 2.58 228.812 2.66C228.958 2.72667 229.058 2.84 229.112 3C229.178 3.14667 229.172 3.3 229.092 3.46C229.025 3.60667 228.918 3.71333 228.772 3.78C228.345 3.92667 227.958 4.06 227.612 4.18C227.265 4.3 226.972 4.40667 226.732 4.5C226.598 4.55333 226.478 4.6 226.372 4.64C226.278 4.66667 226.192 4.69333 226.112 4.72C226.018 4.74667 225.938 4.77333 225.872 4.8C225.805 4.81333 225.738 4.82 225.672 4.82ZM235.54 5.22C235.446 5.22 235.36 5.20667 235.28 5.18C235.026 5.12667 234.846 4.97333 234.74 4.72C234.66 4.49333 234.68 4.24 234.8 3.96C234.933 3.68 235.106 3.36667 235.32 3.02C235.4 2.9 235.473 2.78 235.54 2.66C235.62 2.52667 235.686 2.40667 235.74 2.3C235.766 2.26 235.786 2.22667 235.8 2.2C235.813 2.16 235.826 2.12667 235.84 2.1C235.44 2.03333 234.973 2.02 234.44 2.06C233.92 2.08667 233.333 2.18667 232.68 2.36C232.106 2.50667 231.486 2.7 230.82 2.94C230.166 3.16667 229.473 3.44 228.74 3.76C228.593 3.81333 228.446 3.81333 228.3 3.76C228.153 3.70667 228.046 3.60667 227.98 3.46C227.9 3.31333 227.893 3.16 227.96 3C228.026 2.82667 228.133 2.71333 228.28 2.66C229.026 2.32667 229.74 2.04 230.42 1.8C231.113 1.54667 231.766 1.34667 232.38 1.2C234.02 0.786666 235.36 0.72 236.4 1C236.706 1.08 236.92 1.26667 237.04 1.56C237.16 1.85333 237.133 2.18 236.96 2.54C236.786 2.9 236.58 3.27333 236.34 3.66C236.326 3.68667 236.306 3.72 236.28 3.76C236.253 3.8 236.226 3.84667 236.2 3.9C236.506 3.83333 236.96 3.7 237.56 3.5C238.16 3.3 238.986 3.00667 240.04 2.62C240.186 2.56667 240.333 2.58 240.48 2.66C240.64 2.72667 240.746 2.84 240.8 3C240.866 3.14667 240.866 3.3 240.8 3.46C240.733 3.60667 240.613 3.71333 240.44 3.78C239.826 3.99333 239.266 4.18667 238.76 4.36C238.253 4.53333 237.8 4.68 237.4 4.8C236.866 4.96 236.46 5.07333 236.18 5.14C235.9 5.19333 235.686 5.22 235.54 5.22ZM244.857 5.42C244.697 5.42 244.564 5.37333 244.457 5.28C244.244 5.10667 244.184 4.88667 244.277 4.62C244.277 4.60667 244.324 4.44667 244.417 4.14C244.524 3.83333 244.644 3.48667 244.777 3.1C244.844 2.87333 244.904 2.68 244.957 2.52C245.01 2.34667 245.057 2.19333 245.097 2.06C244.737 2.19333 244.297 2.36 243.777 2.56C243.257 2.74667 242.71 2.94667 242.137 3.16C241.577 3.37333 241.03 3.58 240.497 3.78C240.35 3.83333 240.204 3.82667 240.057 3.76C239.897 3.68 239.784 3.56 239.717 3.4C239.664 3.25333 239.677 3.10667 239.757 2.96C239.824 2.8 239.937 2.68667 240.097 2.62C240.697 2.40667 241.317 2.18667 241.957 1.96C242.597 1.72 243.19 1.5 243.737 1.3C244.284 1.08667 244.73 0.913333 245.077 0.78C245.424 0.646666 245.597 0.579999 245.597 0.579999C245.664 0.566666 245.73 0.56 245.797 0.56C245.864 0.546667 245.924 0.553333 245.977 0.579999C246.164 0.606666 246.297 0.713333 246.377 0.899999C246.444 1.00667 246.47 1.14667 246.457 1.32C246.457 1.48 246.424 1.71333 246.357 2.02C246.317 2.19333 246.264 2.38667 246.197 2.6C246.144 2.8 246.07 3.03333 245.977 3.3C245.964 3.35333 245.95 3.4 245.937 3.44C245.924 3.48 245.91 3.52667 245.897 3.58C246.43 3.28667 247.084 2.98 247.857 2.66C248.004 2.59333 248.15 2.59333 248.297 2.66C248.457 2.71333 248.564 2.81333 248.617 2.96C248.697 3.10667 248.704 3.26 248.637 3.42C248.57 3.58 248.464 3.69333 248.317 3.76C247.717 4.02667 247.177 4.28 246.697 4.52C246.23 4.76 245.857 4.95333 245.577 5.1C245.297 5.24667 245.157 5.32 245.157 5.32C245.077 5.38667 244.977 5.42 244.857 5.42ZM249.67 6.56C249.577 6.56 249.484 6.54667 249.39 6.52C249.297 6.50667 249.204 6.49333 249.11 6.48C248.87 6.41333 248.704 6.27333 248.61 6.06C248.49 5.79333 248.49 5.47333 248.61 5.1C248.744 4.71333 248.957 4.22 249.25 3.62C249.304 3.51333 249.357 3.39333 249.41 3.26C249.477 3.12667 249.537 3 249.59 2.88C249.417 2.94667 249.23 3.06 249.03 3.22C248.844 3.36667 248.65 3.52 248.45 3.68C248.317 3.77333 248.17 3.81333 248.01 3.8C247.837 3.77333 247.697 3.7 247.59 3.58C247.497 3.44667 247.464 3.3 247.49 3.14C247.504 2.98 247.57 2.84 247.69 2.72C247.877 2.58667 248.07 2.44 248.27 2.28C248.484 2.12 248.697 1.98667 248.91 1.88C249.457 1.6 249.957 1.52667 250.41 1.66C250.624 1.7 250.784 1.83333 250.89 2.06C250.997 2.27333 250.99 2.54 250.87 2.86C250.764 3.18 250.577 3.61333 250.31 4.16C250.244 4.32 250.17 4.48 250.09 4.64C250.024 4.8 249.957 4.95333 249.89 5.1C249.877 5.15333 249.857 5.2 249.83 5.24C249.817 5.28 249.804 5.32 249.79 5.36C250.07 5.32 250.477 5.18 251.01 4.94C251.557 4.68667 252.29 4.19333 253.21 3.46C253.704 3.07333 254.15 2.7 254.55 2.34C254.95 1.96667 255.27 1.66 255.51 1.42C255.75 1.18 255.87 1.06 255.87 1.06C256.03 0.873333 256.224 0.813333 256.45 0.88C256.557 0.893333 256.644 0.94 256.71 1.02C256.777 1.08667 256.83 1.15333 256.87 1.22C256.964 1.40667 256.97 1.62667 256.89 1.88C256.824 2.12 256.677 2.51333 256.45 3.06C256.37 3.23333 256.29 3.40667 256.21 3.58C256.144 3.75333 256.077 3.91333 256.01 4.06C255.997 4.11333 255.984 4.16 255.97 4.2C255.97 4.22667 255.964 4.25333 255.95 4.28C256.204 4.24 256.47 4.13333 256.75 3.96C257.044 3.77333 257.324 3.56667 257.59 3.34C257.87 3.11333 258.104 2.92 258.29 2.76C258.424 2.64 258.57 2.58667 258.73 2.6C258.89 2.61333 259.03 2.68 259.15 2.8C259.257 2.93333 259.304 3.08 259.29 3.24C259.29 3.4 259.224 3.54 259.09 3.66C258.677 4.02 258.25 4.36 257.81 4.68C257.384 5 256.95 5.24 256.51 5.4C256.084 5.54667 255.65 5.56667 255.21 5.46C254.997 5.36667 254.844 5.23333 254.75 5.06C254.67 4.87333 254.644 4.66667 254.67 4.44C254.71 4.21333 254.79 3.93333 254.91 3.6C254.764 3.73333 254.61 3.86 254.45 3.98C254.304 4.1 254.144 4.23333 253.97 4.38C252.13 5.83333 250.697 6.56 249.67 6.56ZM261.375 4.82C261.308 4.82 261.255 4.81333 261.215 4.8C261.002 4.74667 260.848 4.66667 260.755 4.56C260.675 4.44 260.622 4.34667 260.595 4.28C260.502 3.98667 260.535 3.68667 260.695 3.38C260.855 3.06 261.062 2.72667 261.315 2.38C261.395 2.27333 261.468 2.16 261.535 2.04C261.615 1.90667 261.682 1.79333 261.735 1.7C261.748 1.68667 261.768 1.66 261.795 1.62C261.715 1.64667 261.615 1.68667 261.495 1.74C261.388 1.79333 261.262 1.87333 261.115 1.98C260.875 2.12667 260.622 2.32 260.355 2.56C260.088 2.78667 259.815 3.02667 259.535 3.28C259.468 3.33333 259.395 3.39333 259.315 3.46C259.248 3.52667 259.182 3.59333 259.115 3.66C258.995 3.76667 258.855 3.82 258.695 3.82C258.522 3.80667 258.382 3.73333 258.275 3.6C258.155 3.48 258.102 3.34 258.115 3.18C258.128 3.00667 258.195 2.86667 258.315 2.76C258.382 2.69333 258.455 2.62667 258.535 2.56C258.602 2.49333 258.668 2.43333 258.735 2.38C259.162 1.99333 259.582 1.64 259.995 1.32C260.408 0.986667 260.815 0.733333 261.215 0.56C261.615 0.386666 262.002 0.353333 262.375 0.46C262.602 0.513333 262.762 0.606667 262.855 0.74C262.962 0.86 263.022 0.966666 263.035 1.06C263.155 1.35333 263.128 1.66667 262.955 2C262.782 2.32 262.562 2.67333 262.295 3.06C262.268 3.08667 262.235 3.13333 262.195 3.2C262.168 3.25333 262.135 3.30667 262.095 3.36C262.295 3.28 262.555 3.18 262.875 3.06C263.195 2.94 263.582 2.79333 264.035 2.62C264.208 2.56667 264.368 2.58 264.515 2.66C264.662 2.72667 264.762 2.84 264.815 3C264.882 3.14667 264.875 3.3 264.795 3.46C264.728 3.60667 264.622 3.71333 264.475 3.78C264.048 3.92667 263.662 4.06 263.315 4.18C262.968 4.3 262.675 4.40667 262.435 4.5C262.302 4.55333 262.182 4.6 262.075 4.64C261.982 4.66667 261.895 4.69333 261.815 4.72C261.722 4.74667 261.642 4.77333 261.575 4.8C261.508 4.81333 261.442 4.82 261.375 4.82Z"/>
</svg>
